{"title":"Murder.in.the.First.1995.1080p.BluRay.x264.DD2.0-FGT","uid":11979378,"size":7781763701,"categoryP":"video","categoryS":"hd___movies","magnet":"?xt=urn:btih:794b2aacbed6585ff26e8fbbf485b3d9481e25c1&amp;dn=Murder.in.the.First.1995.1080p.BluRay.x264.DD2.0-FGT&amp;tr=udp%3A%2F%2Ftracker.openbittorrent.com%3A80&amp;tr=udp%3A%2F%2Fopen.demonii.com%3A1337&amp;tr=udp%3A%2F%2Ftracker.coppersurfer.tk%3A6969&amp;tr=udp%3A%2F%2Fexodus.desync.com%3A6969","seeders":0,"leechers":0,"uploader":"vickey1992","files":2,"time":1433147829,"description":"Video\nID                                       : 1\nFormat                                   : AVC\nFormat/Info                              : Advanced Video Codec\nFormat profile                           : &lt;a class=&quot;__cf_email__&quot; href=&quot;/cdn-cgi/l/email-protection&quot; data-cfemail=&quot;db93b2bcb39b97eff5ea&quot;&gt;[email&amp;#160;protected]&lt;/a&gt;&lt;script data-cfhash='f9e31' type=&quot;text/javascript&quot;&gt;\n/* &lt;![CDATA[ */!function(){try{var t=&quot;currentScript&quot;in document?document.currentScript:function(){for(var t=document.getElementsByTagName(&quot;script&quot;),e=t.length;e--;)if(t[e].getAttribute(&quot;data-cfhash&quot;))return t[e]}();if(t&amp;&amp;t.previousSibling){var e,r,n,i,c=t.previousSibling,a=c.getAttribute(&quot;data-cfemail&quot;);if(a){for(e=&quot;&quot;,r=parseInt(a.substr(0,2),16),n=2;a.length-n;n+=2)i=parseInt(a.substr(n,2),16)^r,e+=String.fromCharCode(i);e=document.createTextNode(e),c.parentNode.replaceChild(e,c)}t.parentNode.removeChild(t);}}catch(u){}}()/* ]]&gt; */&lt;/script&gt;\nFormat settings, CABAC                   : Yes\nFormat settings, ReFrames                : 5 frames\nCodec ID                                 : V_MPEG4/ISO/AVC\nDuration                                 : 2h 2mn\nBit rate                                 : 8 079 Kbps\nWidth                                    : 1 912 pixels\nHeight                                   : 1 080 pixels\nDisplay aspect ratio                     : 16:9\nFrame rate mode                          : Constant\nFrame rate                               : 23.976 fps\nColor space                              : YUV\nChroma subsampling                       : 4:2:0\nBit depth                                : 8 bits\nScan type                                : Progressive\nBits/(Pixel*Frame)                       : 0.163\nStream size                              : 6.77 GiB (93%)\nWriting library                          : x264 core 130 r2273 b3065e6\nEncoding settings                        : cabac=1 / ref=5 / deblock=1:-3:-3 / analyse=0x3:0x133 / me=umh / subme=11 / psy=1 / psy_rd=1.00:0.10 / mixed_ref=1 / me_range=32 / chroma_me=1 / trellis=2 / 8x8dct=1 / cqm=0 / deadzone=21,11 / fast_pskip=1 / chroma_qp_offset=-3 / threads=6 / lookahead_threads=1 / sliced_threads=0 / nr=0 / decimate=1 / interlaced=0 / bluray_compat=0 / constrained_intra=0 / bframes=8 / b_pyramid=2 / b_adapt=2 / b_bias=0 / direct=3 / weightb=1 / open_gop=0 / weightp=2 / keyint=250 / keyint_min=23 / scenecut=40 / intra_refresh=0 / rc_lookahead=60 / rc=2pass / mbtree=1 / bitrate=8079 / ratetol=1.0 / qcomp=0.60 / qpmin=0 / qpmax=69 / qpstep=4 / cplxblur=20.0 / qblur=0.5 / ip_ratio=1.40 / aq=1:1.00\nLanguage                                 : English\nDefault                                  : Yes\nForced                                   : No\n\nAudio\nID                                       : 2\nFormat                                   : AC-3\nFormat/Info                              : Audio Coding 3\nMode extension                           : CM (complete main)\nFormat settings, Endianness              : Big\nCodec ID                                 : A_AC3\nDuration                                 : 2h 2mn\nBit rate mode                            : Constant\nBit rate                                 : 384 Kbps\nChannel(s)                               : 2 channels\nChannel positions                        : Front: L R\nSampling rate                            : 48.0 KHz\nBit depth                                : 16 bits\nCompression mode                         : Lossy\nStream size                              : 337 MiB (5%)\nLanguage                                 : English\nDefault                                  : Yes\nForced                                   : No\n\nText #1\nID                                       : 3\nFormat                                   : UTF-8\nCodec ID                                 : S_TEXT/UTF8\nCodec ID/Info                            : UTF-8 Plain Text\nLanguage                                 : English\nDefault                                  : No\nForced                                   : No\n\nText #2\nID                                       : 4\nFormat                                   : UTF-8\nCodec ID                                 : S_TEXT/UTF8\nCodec ID/Info                            : UTF-8 Plain Text\nLanguage                                 : French\nDefault                                  : No\nForced                                   : No\n\nText #3\nID                                       : 5\nFormat                                   : UTF-8\nCodec ID                                 : S_TEXT/UTF8\nCodec ID/Info                            : UTF-8 Plain Text\nLanguage                                 : Spanish\nDefault                                  : No\nForced                                   : No\n\nText #4\nID                                       : 6\nFormat                                   : UTF-8\nCodec ID                                 : S_TEXT/UTF8\nCodec ID/Info                            : UTF-8 Plain Text\nLanguage                                 : Dutch\nDefault                                  : No\nForced                                   : No\n\nText #5\nID                                       : 7\nFormat                                   : UTF-8\nCodec ID                                 : S_TEXT/UTF8\nCodec ID/Info                            : UTF-8 Plain Text\nLanguage                                 : Finnish\nDefault                                  : No\nForced                                   : No\n\nMenu\n00:00:00.000                             : en:A Fugitive Surrenders\n00:03:13.527                             : en:The Rehabilitation Process at Alcatraz (Credits)\n00:11:24.934                             : en:Glenn's Job\n00:17:37.014                             : en:Murder at Mealtime\n00:22:08.536                             : en:A Monkey's First Case\n00:24:55.786                             : en:Henri's First Crime\n00:29:16.964                             : en:How's Dimaggio Doing?\n00:32:33.451                             : en:No Breaks\n00:33:22.959                             : en:Older Than He Thought\n00:35:39.054                             : en:Stamphill's Deadline\n00:37:01.970                             : en:Three Last Years\n00:38:57.001                             : en:Like a Lost Cause\n00:39:58.479                             : en:Henri on Holiday\n00:43:42.203                             : en:&quot;They Haven't Caught All the Killers.&quot;\n00:48:34.120                             : en:Alcatraz on Trial\n00:51:56.030                             : en:Cool As a Cucumber\n00:54:15.627                             : enlaying Hardball\n00:56:32.723                             : en:&quot;I Need a Friend.&quot;\n00:58:26.920                             : en:Nobody's Talking\n01:00:54.067                             : en:The Dungeons of Alcatraz\n01:04:21.983                             : en:A New Lawyer on the Case\n01:07:47.480                             : en:Family Matters\n01:11:33.539                             : en:Brother to Brother\n01:14:38.557                             : en:Lured Into an Ambush\n01:16:26.290                             : en:Henri's First Time\n01:20:01.505                             : en:Glenn Takes the Stand\n01:25:12.441                             : en:Bad Timing\n01:27:52.559                             : en:Could've Been Just Like You\n01:30:24.544                             : en:A Cold, Hard Fact About Warden Humson\n01:35:40.693                             : en:Not Worth Going Back There\n01:37:53.242                             : en:Something Worth Fighting For\n01:41:43.097                             : en:&quot;I Want to Stop Being Afraid.&quot;\n01:49:19.094                             : en:&quot;They're the Murderers.&quot;\n01:51:34.271                             : en:A Verdict and a Petition\n01:53:34.933                             : en:&quot;I Won, Didn't I?&quot;\n01:54:59.351                             : en:The Definition of Victory\n01:56:21.975                             : en:Action/Reaction\n01:58:25.098                             : en:Coda and End Credits","torrent":{"xt":"urn:btih:794b2aacbed6585ff26e8fbbf485b3d9481e25c1","amp;dn":"Murder.in.the.First.1995.1080p.BluRay.x264.DD2.0-FGT","amp;tr":["udp%3A%2F%2Ftracker.openbittorrent.com%3A80","udp%3A%2F%2Fopen.demonii.com%3A1337","udp%3A%2F%2Ftracker.coppersurfer.tk%3A6969","udp%3A%2F%2Fexodus.desync.com%3A6969"],"infoHash":"794b2aacbed6585ff26e8fbbf485b3d9481e25c1","infoHashBuffer":{"type":"Buffer","data":[121,75,42,172,190,214,88,95,242,110,143,187,244,133,179,217,72,30,37,193]},"announce":[],"urlList":[]}}